<?xml version="1.0" encoding="UTF-8" standalone="no"?>
<svg xmlns="http://www.w3.org/2000/svg" xmlns:xlink="http://www.w3.org/1999/xlink" xmlns:inkscape="http://www.inkscape.org/namespaces/inkscape" width="210mm" height="297mm" viewBox="0 0 210 297" role="img" aria-labelledby="title7 desc7">
  <title id="title7">VIP Antique Royal Certificate Border — Classic Victorian Design 7</title>
  <desc id="desc7">Crown-free A4 portrait certificate border in a classic Victorian and Baroque engraved style, with aged parchment, muted sepia-gold acanthus scrollwork, square layered frames and a spacious writing area.</desc>

  <defs>
    <linearGradient id="paper7" x1="0" y1="0" x2="1" y2="1">
      <stop offset="0" stop-color="#e3cf9c"/><stop offset=".16" stop-color="#f8edcf"/><stop offset=".44" stop-color="#fff8e4"/><stop offset=".72" stop-color="#f3e5c1"/><stop offset=".9" stop-color="#fff7df"/><stop offset="1" stop-color="#dcc28b"/>
    </linearGradient>
    <radialGradient id="vignette7" cx="50%" cy="44%" r="73%">
      <stop offset="0" stop-color="#fffdf2" stop-opacity=".78"/><stop offset=".68" stop-color="#fff8e5" stop-opacity=".22"/><stop offset="1" stop-color="#765018" stop-opacity=".17"/>
    </radialGradient>
    <linearGradient id="oldGold7" x1="0" y1="0" x2="1" y2="1">
      <stop offset="0" stop-color="#5a3d13"/><stop offset=".19" stop-color="#a77a31"/><stop offset=".42" stop-color="#dfc582"/><stop offset=".62" stop-color="#86601f"/><stop offset=".82" stop-color="#c7a65c"/><stop offset="1" stop-color="#50330e"/>
    </linearGradient>
    <linearGradient id="sepiaInk7" x1="0" y1="0" x2="0" y2="1">
      <stop offset="0" stop-color="#2c1808"/><stop offset=".5" stop-color="#6b451b"/><stop offset="1" stop-color="#311b09"/>
    </linearGradient>
    <filter id="grain7" x="-10%" y="-10%" width="120%" height="120%" color-interpolation-filters="sRGB">
      <feTurbulence type="fractalNoise" baseFrequency=".57" numOctaves="4" seed="118" result="n"/><feColorMatrix in="n" type="matrix" values="0 0 0 0 .43 0 0 0 0 .29 0 0 0 0 .1 0 0 0 .065 0" result="t"/><feBlend in="SourceGraphic" in2="t" mode="multiply"/>
    </filter>
    <filter id="press7" x="-25%" y="-25%" width="150%" height="150%">
      <feGaussianBlur in="SourceAlpha" stdDeviation=".32" result="b"/><feOffset dx=".28" dy=".34" result="o"/><feColorMatrix in="o" type="matrix" values="0 0 0 0 .18 0 0 0 0 .1 0 0 0 0 .03 0 0 0 .35 0"/><feMerge><feMergeNode/><feMergeNode in="SourceGraphic"/></feMerge>
    </filter>
    <pattern id="vineH7" width="20" height="5.4" patternUnits="userSpaceOnUse">
      <path d="M0 2.7 C3 .3 6 .5 8.3 2.4 C9.4 3.3 10.6 3.3 11.7 2.4 C14 .5 17 .3 20 2.7" fill="none" stroke="#76521e" stroke-width=".42"/>
      <path d="M2.2 3.2 C5.2 5 7.6 4.4 9.1 2.8 M17.8 3.2 C14.8 5 12.4 4.4 10.9 2.8" fill="none" stroke="#b28d48" stroke-width=".32"/>
      <path d="M10 1 C12 2.1 12 3.5 10 4.5 C8 3.5 8 2.1 10 1Z" fill="url(#oldGold7)" stroke="#5d3d14" stroke-width=".22"/>
      <circle cx="0" cy="2.7" r=".35" fill="#8a6226"/>
    </pattern>
    <pattern id="vineV7" width="5.4" height="20" patternUnits="userSpaceOnUse">
      <path d="M2.7 0 C.3 3 .5 6 2.4 8.3 C3.3 9.4 3.3 10.6 2.4 11.7 C.5 14 .3 17 2.7 20" fill="none" stroke="#76521e" stroke-width=".42"/>
      <path d="M3.2 2.2 C5 5.2 4.4 7.6 2.8 9.1 M3.2 17.8 C5 14.8 4.4 12.4 2.8 10.9" fill="none" stroke="#b28d48" stroke-width=".32"/>
      <path d="M1 10 C2.1 12 3.5 12 4.5 10 C3.5 8 2.1 8 1 10Z" fill="url(#oldGold7)" stroke="#5d3d14" stroke-width=".22"/>
      <circle cx="2.7" cy="0" r=".35" fill="#8a6226"/>
    </pattern>
    <symbol id="acanthusCorner7" viewBox="0 0 50 50">
      <g fill="none" stroke-linecap="round" stroke-linejoin="round">
        <path d="M2.5 47.5 V16 C2.5 8.5 8.5 2.5 16 2.5 H47.5" stroke="#2f1a08" stroke-width="1.65"/>
        <path d="M3.5 46.5 V16 C3.5 9.1 9.1 3.5 16 3.5 H46.5" stroke="url(#oldGold7)" stroke-width=".72"/>
        <path d="M7 43 C7.6 26.5 23 8.5 43 7" stroke="#6f4b1b" stroke-width=".82"/>
        <path d="M8.2 36 C14.5 28.8 20.8 22.4 27.2 14.7" stroke="#a57b35" stroke-width=".55"/>
        <path d="M5.2 31 C10.2 27.8 14.2 29.2 14.1 33 C14 36.4 10.3 37.1 9.3 34.4 C8.7 32.7 10.5 31.8 11.5 33" stroke="#624019" stroke-width=".92"/>
        <path d="M31 5.2 C27.8 10.2 29.2 14.2 33 14.1 C36.4 14 37.1 10.3 34.4 9.3 C32.7 8.7 31.8 10.5 33 11.5" stroke="#624019" stroke-width=".92"/>
        <path d="M13.2 26.1 C18.6 22.3 22.3 18.6 26.1 13.2" stroke="#d6ba72" stroke-width=".38"/>
      </g>
      <g fill="url(#oldGold7)" stroke="#4d310f" stroke-width=".42" stroke-linejoin="round" filter="url(#press7)">
        <path d="M5.4 31 C1.8 25.7 2.9 20.5 8.7 18.2 C9.8 23.5 8.7 27.9 5.4 31Z"/>
        <path d="M8.8 21.7 C6.8 16.5 9.1 11.6 14.8 10.4 C14.6 15.6 12.6 19.3 8.8 21.7Z"/>
        <path d="M14.1 13.2 C13.7 8.3 17 4.7 21.9 5 C20.7 9.3 18.2 12.2 14.1 13.2Z"/>
        <path d="M20.2 8.1 C21.1 3.9 24.6 1.8 28.8 3 C26.9 6.5 24.1 8.2 20.2 8.1Z"/>
        <path d="M14.2 27.2 C18.4 21.8 23.7 21 28 24.5 C24.3 28.8 19.6 29.7 14.2 27.2Z"/>
        <path d="M27.2 14.2 C21.8 18.4 21 23.7 24.5 28 C28.8 24.3 29.7 19.6 27.2 14.2Z"/>
        <path d="M24.8 36 C30.4 31.8 35.9 32.8 39.4 37.4 C34.7 40.5 29.7 40 24.8 36Z"/>
        <path d="M36 24.8 C31.8 30.4 32.8 35.9 37.4 39.4 C40.5 34.7 40 29.7 36 24.8Z"/>
      </g>
      <g fill="#5b3b14">
        <circle cx="8.3" cy="27" r=".75"/><circle cx="12.4" cy="18.4" r=".55"/><circle cx="18.4" cy="12.4" r=".55"/><circle cx="27" cy="8.3" r=".75"/>
      </g>
    </symbol>
    <symbol id="innerCorner7" viewBox="0 0 26 26">
      <g fill="none" stroke-linecap="round">
        <path d="M1 25 V10.5 C1 5.3 5.3 1 10.5 1 H25" stroke="#75501c" stroke-width=".62"/>
        <path d="M3.4 18.8 C7.5 17.3 9.6 13.1 9 8.7 C13.6 9.3 17.6 7.1 19.2 3.2" stroke="#a67e37" stroke-width=".52"/>
        <path d="M4.2 14 C8.5 12.6 12.3 8.8 13.9 4.2" stroke="#c0a05b" stroke-width=".34"/>
      </g>
      <g fill="url(#oldGold7)" stroke="#674719" stroke-width=".28">
        <path d="M4 14.2 C2.1 10.4 3.3 7.3 7.1 6.3 C7.4 9.8 6.2 12.4 4 14.2Z"/>
        <path d="M8.8 8.4 C8.2 4.8 10.5 2.5 14.1 2.6 C13.2 5.7 11.5 7.7 8.8 8.4Z"/>
        <path d="M10.6 13.7 C13.9 10.8 17.2 11.3 18.8 14.4 C15.6 16 12.8 15.7 10.6 13.7Z"/>
      </g>
    </symbol>
    <symbol id="filigreeCorner7" viewBox="0 0 48 48">
      <g fill="none" stroke-linecap="round" stroke-linejoin="round" filter="url(#press7)">
        <path d="M7 41 C7.4 29.4 12.2 20.2 22 13.4 C29.1 8.5 36.1 7.1 42 7" stroke="#77501b" stroke-width=".82"/>
        <path d="M9.1 36 C13 28.1 18.8 22.3 26.3 17.8 C31.6 14.6 36.1 13.9 41 14.2" stroke="#b08741" stroke-width=".5"/>
        <path d="M5.2 33.7 C8.3 28.2 14.6 27.1 17.3 31 C20.2 35.1 16.8 40 12.7 38.3 C9.8 37.1 10.2 33.7 12.7 33.1 C14.6 32.7 15.6 34.7 14.2 35.8" stroke="#694419" stroke-width="1"/>
        <path d="M33.7 5.2 C28.2 8.3 27.1 14.6 31 17.3 C35.1 20.2 40 16.8 38.3 12.7 C37.1 9.8 33.7 10.2 33.1 12.7 C32.7 14.6 34.7 15.6 35.8 14.2" stroke="#694419" stroke-width="1"/>
        <path d="M14.2 31.6 C19.5 30.4 24.6 27.6 28.4 23.7 C32.3 19.8 35.1 14.8 36.4 9.5" stroke="#d0b36f" stroke-width=".4"/>
      </g>
      <g fill="#8b6428" stroke="#d1b36e" stroke-width=".25">
        <circle cx="8.1" cy="33" r=".72"/><circle cx="14.7" cy="25.3" r=".52"/><circle cx="24" cy="19.7" r=".62"/><circle cx="33" cy="8.1" r=".72"/>
      </g>
    </symbol>
    <symbol id="palmette7" viewBox="0 0 38 16">
      <g fill="url(#oldGold7)" stroke="#51340f" stroke-width=".4" stroke-linejoin="round" filter="url(#press7)">
        <path d="M19 1 C22 4.4 22.1 7.7 19 10.4 C15.9 7.7 16 4.4 19 1Z"/>
        <path d="M17.2 9.2 C12.8 8.3 10.2 5.7 9.8 2.4 C14.2 3.2 16.7 5.5 17.2 9.2Z"/>
        <path d="M20.8 9.2 C25.2 8.3 27.8 5.7 28.2 2.4 C23.8 3.2 21.3 5.5 20.8 9.2Z"/>
        <path d="M15 10.4 C9.8 11.1 5.8 9.9 3 7.2 C8.1 6.4 12.1 7.5 15 10.4Z"/>
        <path d="M23 10.4 C28.2 11.1 32.2 9.9 35 7.2 C29.9 6.4 25.9 7.5 23 10.4Z"/>
      </g>
      <path d="M2 13 H36 M7 15 H31" fill="none" stroke="#7f591f" stroke-width=".55" stroke-linecap="round"/>
      <circle cx="19" cy="10.7" r=".85" fill="#5c3a12" stroke="#cfac60" stroke-width=".34"/>
    </symbol>
  </defs>

  <g inkscape:groupmode="layer" inkscape:label="Aged parchment">
    <rect width="210" height="297" fill="url(#paper7)"/><rect x="1.1" y="1.1" width="207.8" height="294.8" fill="url(#vignette7)" filter="url(#grain7)"/>
    <path d="M5 7 C42 4.8 72 8 106 5.8 C139 3.7 174 8.1 205 5.6 M4.8 290 C38 292 73 288.5 108 291.1 C143 293.5 175 288.8 205 291" fill="none" stroke="#8a6428" stroke-width="1.1" stroke-opacity=".12"/>
  </g>
  <g inkscape:groupmode="layer" inkscape:label="Classic square frame" fill="none" stroke-linejoin="miter">
    <rect x="4.7" y="4.7" width="200.6" height="287.6" stroke="#2c1808" stroke-width="1.2"/>
    <rect x="5.9" y="5.9" width="198.2" height="285.2" stroke="url(#oldGold7)" stroke-width=".68"/>
    <rect x="8.1" y="8.1" width="193.8" height="280.8" stroke="#6b4618" stroke-width=".56"/>
    <rect x="9.2" y="9.2" width="191.6" height="278.6" stroke="#d0af68" stroke-width=".3"/>
    <rect x="14.7" y="14.7" width="180.6" height="267.6" stroke="#4b2d0e" stroke-width=".78"/>
    <rect x="16" y="16" width="178" height="265" stroke="#c39a4b" stroke-width=".4"/>
  </g>
  <g inkscape:groupmode="layer" inkscape:label="Engraved vine rails" opacity=".78">
    <rect x="41" y="10" width="128" height="5.4" fill="url(#vineH7)"/><rect x="41" y="281.6" width="128" height="5.4" fill="url(#vineH7)"/>
    <rect x="10" y="41" width="5.4" height="215" fill="url(#vineV7)"/><rect x="194.6" y="41" width="5.4" height="215" fill="url(#vineV7)"/>
  </g>
  <g inkscape:groupmode="layer" inkscape:label="Thin inner writing frame" fill="none">
    <rect x="18.2" y="18.2" width="173.6" height="260.6" stroke="#68451a" stroke-width=".72"/>
    <rect x="19.55" y="19.55" width="170.9" height="257.9" stroke="#c29b50" stroke-width=".34"/>
  </g>
  <g inkscape:groupmode="layer" inkscape:label="Pure filigree corners">
    <use xlink:href="#filigreeCorner7" x="4.2" y="4.2" width="36" height="36"/><g transform="translate(210 0) scale(-1 1)"><use xlink:href="#filigreeCorner7" x="4.2" y="4.2" width="36" height="36"/></g>
    <g transform="translate(0 297) scale(1 -1)"><use xlink:href="#filigreeCorner7" x="4.2" y="4.2" width="36" height="36"/></g><g transform="translate(210 297) scale(-1 -1)"><use xlink:href="#filigreeCorner7" x="4.2" y="4.2" width="36" height="36"/></g>
  </g>
</svg>
